<?xml version="1.0" encoding="UTF-8"?>
<svg id="Layer_2" data-name="Layer 2" xmlns="http://www.w3.org/2000/svg" viewBox="0 0 189.79 169.71">
  <defs>
    <style>
      .cls-1 {
        fill: currentColor;
        stroke-width: 0px;
      }
    </style>
  </defs>
  <g id="Layer_2-2" data-name="Layer 2">
    <g>
      <path class="cls-1" d="m0,24.31c0,34.12,132.21,145.01,164.2,145.01,27.72,0,12.79-27.72-2.13-27.72-10.66,0-14.93,10.66-4.26,21.32-14.93,0-115.71-90.92-102.36-102.36,14.93-12.79,44.78-8.53,59.71,4.26s-44.78,95.96-44.78,95.96c0,0,0-23.46-12.79-21.32-16.83,2.8-19.19,34.12,8.53,29.85,16.86-2.59,72.5-93.83,78.9-104.49,6.4-10.66,4.26-25.59-6.4-38.38C127.95,13.64,107.24,3.42,78.9.85,55.44-1.28,0-1.28,0,24.31Z"/>
      <path class="cls-1" d="m12.79,113.87c0,21.43,61.49,14.93,87.43,14.93s46.91-4.26,66.11-8.53,23.46-6.4,23.46-17.06c0-6.4-17.06-19.19-27.72-19.19s-17.06,38.38-68.24,38.38c-44.78,0-53.31-23.46-61.84-25.59-9.31-2.33-19.19,6.4-19.19,17.06Z"/>
    </g>
  </g>
</svg>