<?xml version="1.0" encoding="UTF-8"?>
<svg id="Layer_2" data-name="Layer 2" xmlns="http://www.w3.org/2000/svg" viewBox="0 0 175 177.8">
  <defs>
    <style>
      .cls-1 {
        fill: #ec008c;
      }

      .cls-1, .cls-2 {
        stroke-width: 0px;
      }

      .cls-2 {
        fill: currentColor;
      }
    </style>
  </defs>
  <g id="Layer_3" data-name="Layer 3">
    <circle class="cls-2" cx="120.5" cy="164.3" r="13.5"/>
    <circle class="cls-2" cx="54.5" cy="164.3" r="13.5"/>
    <circle class="cls-2" cx="54.5" cy="44.8" r="13.5"/>
    <circle class="cls-2" cx="120.5" cy="44.8" r="13.5"/>
    <circle class="cls-2" cx="26.5" cy="125.3" r="13.5"/>
    <circle class="cls-2" cx="148.5" cy="125.3" r="13.5"/>
    <circle class="cls-2" cx="34" cy="44.8" r="34"/>
    <circle class="cls-2" cx="141" cy="44.8" r="34"/>
    <path class="cls-2" d="m26.5,138.8c7.5,0,53.5-1,61-1v-5c-41.5,0-44.5-21-61-21v27Z"/>
    <path class="cls-2" d="m148.5,138.8c-7.5,0-53.5-1-61-1v-5c41.5,0,44.5-21,61-21v27Z"/>
    <circle class="cls-1" cx="87.5" cy="135.3" r="2.5"/>
    <path class="cls-2" d="m173.17,55.84c-2.74,18.33-80.04,77.27-84.44,81.64l-2.87-4.05s45.8-40.94,26.14-70.89c10.58-6.93,51.89-29.74,61.18-6.7Z"/>
    <path class="cls-2" d="m173.17,55.84c-2.74,18.33-80.04,77.27-84.44,81.64l-2.87-4.05s45.8-40.94,26.14-70.89c10.58-6.93,51.89-29.74,61.18-6.7Z"/>
    <path class="cls-2" d="m1.87,55.77c2.74,18.33,80.04,77.27,84.44,81.64l2.87-4.05s-45.8-40.94-26.14-70.89c-10.58-6.93-51.89-29.74-61.18-6.7Z"/>
    <path class="cls-2" d="m61.63,175.77c8.1-4.59,17.31-28.49,27.1-38.28-.43-.79-.82-1.46-2.74-4.17-6.35,6.35-16.54,21.19-28.98,17.72l4.63,24.73Z"/>
    <path class="cls-2" d="m113.37,175.77c-8.1-4.59-17.31-28.49-27.1-38.28.43-.79.82-1.46,2.74-4.17,6.35,6.35,16.54,21.19,28.98,17.72l-4.63,24.73Z"/>
    <path class="cls-2" d="m16.63,15.57C31.41,6.38,58.03,0,87.5,0,103.27,0,92.54,51.13,87.5,56.17c-10.95,0-21.75,1.61-25.99,8.92-5.48,9.44-44.88-49.52-44.88-49.52Z"/>
    <path class="cls-2" d="m158.32,15.57C143.55,6.38,116.93,0,87.45,0c-15.77,0-5.04,51.13,0,56.17,10.95,0,21.75,1.61,25.99,8.92,5.48,9.44,44.88-49.52,44.88-49.52Z"/>
  </g>
</svg>