<?xml version="1.0" encoding="UTF-8"?>
<svg id="Layer_2" data-name="Layer 2" xmlns="http://www.w3.org/2000/svg" viewBox="0 0 309.55 172.38">
  <defs>
    <style>
      .cls-1 {
        fill: currentColor;
        stroke-width: 0px;
      }
    </style>
  </defs>
  <g id="Layer_2-2" data-name="Layer 2">
    <g>
      <path class="cls-1" d="m119.76,26.97c0,34.12,132.21,145.01,164.2,145.01,27.72,0,12.79-27.72-2.13-27.72-10.66,0-14.93,10.66-4.26,21.32-14.93,0-115.71-90.92-102.36-102.36,14.93-12.79,44.78-8.53,59.71,4.26s-44.78,95.96-44.78,95.96c0,0,0-23.46-12.79-21.32-16.83,2.8-19.19,34.12,8.53,29.85,16.86-2.59,72.5-93.83,78.9-104.49,6.4-10.66,4.26-25.59-6.4-38.38-10.66-12.79-31.38-23.01-59.71-25.59-23.46-2.13-78.9-2.13-78.9,23.46Z"/>
      <path class="cls-1" d="m132.56,116.54c0,21.43,61.49,14.93,87.43,14.93s46.91-4.26,66.11-8.53,23.46-6.4,23.46-17.06c0-6.4-17.06-19.19-27.72-19.19s-17.06,38.38-68.24,38.38c-44.78,0-53.31-23.46-61.84-25.59-9.31-2.33-19.19,6.4-19.19,17.06Z"/>
    </g>
    <path class="cls-1" d="m98.79,66.67c1.51-17.95-30.6-17.75-36.85,6.81-8.45,33.21,60.75,67.4,79.01-4.33,7.68-30.16-19.22-58.55-44.15-65.48C42.79-11.33-6.92,21.24.79,72.67c9,60,125,65,120,84-2.39,9.1-10,11-19,9,10-10,.11-22.46-13-20-16,3-13.35,26,10,26,21.64,0,29-10,30-17,3.55-24.83-73.17-42.7-76-71-3-30,20.01-34.35,26-34,17,1,20,17,20,17Z"/>
  </g>
</svg>